<svg width="24" height="23" viewBox="0 0 24 23" fill="none" xmlns="http://www.w3.org/2000/svg">
<path d="M3 7.64999H22.6125C21.075 3.29999 16.9125 0.149994 12 0.149994C8.325 0.149994 5.0625 1.91249 3 4.64999V7.64999Z" fill="#3E4347"/>
<path d="M22.6125 7.64999H3V15.15H22.6125C23.025 13.9875 23.25 12.7125 23.25 11.4C23.25 10.0875 23.025 8.81249 22.6125 7.64999Z" fill="#F9F9F9"/>
<path d="M3 15.15V18.15C5.0625 20.8875 8.325 22.65 12 22.65C16.9125 22.65 21.075 19.5375 22.6125 15.15H3Z" fill="#007A3D"/>
<path d="M3 4.64999C1.575 6.52499 0.75 8.84999 0.75 11.4C0.75 13.95 1.575 16.275 3 18.15L12 11.4L3 4.64999Z" fill="#C94747"/>
</svg>
